# xmcd
#
# Track frame offsets: 
#        150
#        9402
#        21785
#        37543
#        50239
#        62153
#        78511
#        90396
#        113350
#        125327
#        137635
#        149875
#        155943
#        178674
#        192254
#
# Disc length: 2809 seconds
#
# Revision: 0
# Processed by: cddbd v1.5.2PL0 Copyright (c) Steve Scherf et al.
# Submitted via: ExactAudioCopy v0.99pb5
#
DISCID=c80af70f
DTITLE=The Beatles  - Cpt Salt's Secret Sewing Circle Society  FLAC
DYEAR=1900
DGENRE=
TTITLE0=Sgt Pepper's Lonely Heart Club Band
TTITLE1=With A Little Help From My friends
TTITLE2=Lucy In The Sky With Diamonds
TTITLE3=Getting Better
TTITLE4=Fixing A Hole
TTITLE5=She's Leaving Home
TTITLE6=Being For The Benefit Of Mr Kite
TTITLE7=Within You Without You
TTITLE8=When I'm Sixty Four
TTITLE9=Lovely Rita
TTITLE10=Good Morning Good Morning
TTITLE11=Sgt Pepper Reprise
TTITLE12=A Day In The Life
TTITLE13=Penny Lane
TTITLE14=Strawberry Fields Forever
EXTD=
EXTT0=
EXTT1=
EXTT2=
EXTT3=
EXTT4=
EXTT5=
EXTT6=
EXTT7=
EXTT8=
EXTT9=
EXTT10=
EXTT11=
EXTT12=
EXTT13=
EXTT14=
PLAYORDER=
